<svg width="165" height="166" viewBox="0 0 165 166" fill="none" xmlns="http://www.w3.org/2000/svg">
<path d="M35.6168 24.3389L37.0879 23.2728C37.9194 24.4135 38.8682 24.6267 39.7317 23.9977C39.8964 23.8927 40.0364 23.7532 40.1421 23.5889C40.2478 23.4246 40.3167 23.2393 40.344 23.0459C40.3714 22.8525 40.3565 22.6554 40.3005 22.4682C40.2445 22.2811 40.1486 22.1082 40.0195 21.9616C39.5291 21.2687 38.8575 21.1195 37.8022 21.2794L36.3311 21.5139C35.6799 21.6832 34.9924 21.6471 34.3626 21.4104C33.7329 21.1738 33.1916 20.7482 32.8132 20.192C32.5686 19.8636 32.3956 19.4875 32.3052 19.0882C32.2148 18.6888 32.2091 18.2749 32.2885 17.8732C32.3678 17.4714 32.5304 17.0908 32.7658 16.7557C33.0013 16.4207 33.3043 16.1387 33.6553 15.9279C35.4463 14.6167 37.0027 14.9791 38.3459 16.8234L36.8641 17.8894C36.1179 16.8767 35.329 16.6954 34.5828 17.2391C34.426 17.332 34.2914 17.4582 34.1887 17.6088C34.0859 17.7593 34.0173 17.9305 33.9879 18.1104C33.9584 18.2903 33.9687 18.4744 34.0181 18.6499C34.0674 18.8254 34.1547 18.9879 34.2736 19.126C34.7747 19.8082 35.4463 19.7976 36.4696 19.659L37.8981 19.4991C38.5518 19.3268 39.2426 19.359 39.8774 19.5916C40.5122 19.8242 41.0604 20.2458 41.448 20.7996C41.7155 21.1374 41.9092 21.5276 42.0166 21.9449C42.124 22.3623 42.1426 22.7975 42.0712 23.2224C41.9999 23.6474 41.8402 24.0527 41.6025 24.4121C41.3648 24.7715 41.0543 25.077 40.6911 25.309C38.8575 26.6521 37.0879 26.3537 35.6168 24.3389Z" fill="#231F20"/>
<path d="M46.4677 14.6485C44.8899 11.2372 45.295 8.73208 47.8215 7.55945C49.9536 6.49342 51.7871 7.27162 53.0344 9.69151L51.3074 10.491C50.5399 9.05189 49.6977 8.50821 48.5144 9.06255C46.99 9.76613 47.0007 11.3972 48.1626 13.9023C49.3246 16.4075 50.5612 17.4842 52.0856 16.7806C53.2796 16.2263 53.3969 15.2349 52.7999 13.7211L54.5268 12.9216C55.5929 15.4054 54.9319 17.1857 52.7466 18.2517C50.2307 19.3817 48.0454 18.0598 46.4677 14.6485Z" fill="#231F20"/>
<path d="M67.8201 12.9326L65.251 10.0756H65.0484L64.057 10.3101L64.8139 13.5935L63.087 13.9986L60.5498 3.13577L63.2788 2.50681C65.8586 1.89918 67.543 3.06115 68.1399 5.39575C68.3673 6.10167 68.3671 6.86117 68.1395 7.56699C67.9119 8.27282 67.4683 8.88931 66.8714 9.3294L69.8136 12.4742L67.8201 12.9326ZM63.7053 8.83903L64.7713 8.58318C65.0673 8.52724 65.3473 8.40665 65.5914 8.23C65.8354 8.05336 66.0374 7.82503 66.183 7.5613C66.3286 7.29757 66.4142 7.00495 66.4337 6.70432C66.4532 6.4037 66.4061 6.10248 66.2957 5.82216C65.9652 4.43633 65.0698 3.69011 63.6946 3.97793L62.6286 4.23378L63.7053 8.83903Z" fill="#231F20"/>
<path d="M76.3706 5.96056C76.2853 2.13351 77.8204 0.0654167 80.656 0.00145494C83.4916 -0.0625068 85.112 1.98427 85.1973 5.77933C85.2826 9.5744 83.7688 11.7278 80.9118 11.7278C78.0549 11.7278 76.4558 9.75562 76.3706 5.96056ZM83.3211 5.82197C83.3211 3.01832 82.383 1.55786 80.688 1.62182C78.993 1.68578 78.1828 3.12492 78.2361 5.88594C78.2894 8.64695 79.1955 10.1501 80.8799 10.0861C82.5642 10.0221 83.385 8.61497 83.3211 5.82197Z" fill="#231F20"/>
<path d="M94.4187 1.06738L96.167 1.37653L94.5146 10.7363L97.9366 11.3439L97.6488 12.9962L92.4785 12.0901L94.4187 1.06738Z" fill="#231F20"/>
<path d="M108.671 4.46826L110.344 5.08656L107.061 14.0199L110.323 15.2138L109.737 16.7916L104.812 14.9793L108.671 4.46826Z" fill="#231F20"/>
<path d="M131.325 18.3689L129.385 16.8658L130.451 15.5439L135.717 19.6268L134.651 20.9594L132.721 19.4563L126.89 26.9185L125.483 25.8524L131.325 18.3689Z" fill="#231F20"/>
<path d="M142.284 25.8208L143.446 27.164L139.821 30.3621L142.177 33.0485L145.812 29.8504L146.974 31.1829L138.585 38.5598L137.412 37.2273L140.962 34.1145L138.585 31.4068L135.014 34.5303L133.852 33.1871L142.284 25.8208Z" fill="#231F20"/>
<path d="M145.417 49.1772L147.443 45.8938L147.336 45.7126L146.835 44.8278L143.914 46.4908L143.04 44.945L152.773 39.4443L154.148 41.8749C155.459 44.1882 154.83 46.139 152.741 47.3543C152.127 47.7727 151.398 47.9875 150.656 47.9683C149.913 47.9492 149.196 47.6971 148.605 47.2477L146.419 50.9681L145.417 49.1772ZM148.189 44.0602L148.733 45.041C149.079 45.5096 149.586 45.8352 150.156 45.9564C150.726 46.0776 151.321 45.986 151.828 45.6989C152.336 45.4118 152.72 44.949 152.91 44.3978C153.1 43.8465 153.081 43.2449 152.858 42.7064L152.304 41.7363L148.189 44.0602Z" fill="#231F20"/>
<path d="M154.5 55.3708C158.103 54.2301 160.566 55.0936 161.419 57.812C162.271 60.5303 160.768 62.6411 157.154 63.7817C153.541 64.9224 151.089 64.0696 150.225 61.3405C149.362 58.6115 150.886 56.5008 154.5 55.3708ZM156.632 62.0015C159.297 61.1593 160.427 59.8694 159.926 58.2917C159.425 56.714 157.794 56.3089 155.097 57.151C152.4 57.9932 151.302 59.2831 151.814 60.8608C152.325 62.4385 153.924 62.8969 156.589 62.0015H156.632Z" fill="#231F20"/>
<path d="M156.844 72.0328L164.306 71.3398L164.477 73.1308L157.185 73.8237C155.543 73.9729 154.744 74.8897 154.84 75.9558C154.936 77.0218 155.906 77.768 157.537 77.6081L164.829 76.9258L164.999 78.7274L157.537 79.4203C154.957 79.6655 153.422 78.3543 153.209 76.105C152.996 73.8557 154.285 72.278 156.844 72.0328Z" fill="#231F20"/>
<path d="M156.791 95.8164L156.855 95.2194C154.137 94.793 152.794 93.3006 153.06 90.9553C153.369 88.2689 155.672 86.9684 159.456 87.4054C163.049 87.8212 165.021 89.6654 164.722 92.3092C164.445 94.7397 162.995 95.7205 160.704 95.5925L160.97 93.8123C162.281 93.8123 163.027 93.3859 163.166 92.1386C163.358 90.5289 162.1 89.5908 159.296 89.271C156.311 88.9299 154.883 89.5375 154.691 91.2538C154.542 92.5437 155.384 93.3006 157.1 93.5138L157.356 91.3071L158.945 91.4883L158.433 95.9976L156.791 95.8164Z" fill="#231F20"/>
<path d="M161.824 105.784L161.259 107.468L156.707 105.922L155.566 109.323L160.118 110.869L159.553 112.553L148.893 108.971L149.469 107.287L153.967 108.811L155.108 105.41L150.609 103.897L151.174 102.212L161.824 105.784Z" fill="#231F20"/>
<path d="M147.453 130.909L148.924 128.99L150.267 130.056L146.238 135.387L144.895 134.321L146.376 132.37L138.797 126.624L139.863 125.206L147.453 130.909Z" fill="#231F20"/>
<path d="M140.108 141.964L138.787 143.147L135.588 139.544L132.923 141.932L136.121 145.525L134.8 146.708L127.337 138.361L128.659 137.178L131.857 140.728L134.522 138.34L131.324 134.8L132.657 133.617L140.108 141.964Z" fill="#231F20"/>
<path d="M126.676 152.55L121.825 155.407L121.026 154.042L124.341 152.081L122.721 149.33L119.395 151.281L118.585 149.906L121.9 147.945L120.258 145.162L116.954 147.113L116.144 145.749L120.994 142.892L126.676 152.55Z" fill="#231F20"/>
<path d="M102.85 162.827L97.3495 164.031L97.0084 162.485L100.771 161.665L100.089 158.541L96.3261 159.362L95.9423 157.774L99.7054 156.953L99.0125 153.755L95.2494 154.576L94.9189 153.03L100.409 151.825L102.85 162.827Z" fill="#231F20"/>
<path d="M85.5375 159.629L88.4798 165.236L86.4756 165.289L84.5355 161.025L82.7978 165.289H80.783L83.4268 159.575L80.5059 154.096H82.5207L84.4608 158.19L86.1985 154L88.1919 153.947L85.5375 159.629Z" fill="#231F20"/>
<path d="M65.4971 159.671C65.9021 157.315 67.5545 156.057 70.1663 156.473L71.2323 156.643L71.7973 153.317L73.5456 153.605L71.68 164.639L68.8657 164.17C66.2539 163.764 65.1026 162.037 65.4971 159.671ZM67.3413 159.98C67.2442 160.268 67.2122 160.574 67.2476 160.876C67.283 161.178 67.3849 161.469 67.546 161.727C67.707 161.985 67.9233 162.204 68.1791 162.368C68.435 162.532 68.7241 162.638 69.0256 162.677L70.0916 162.869L70.8805 158.2L69.8145 158.019C69.5195 157.956 69.2142 157.959 68.9206 158.028C68.6269 158.096 68.3521 158.229 68.1158 158.417C67.8795 158.604 67.6875 158.841 67.5536 159.112C67.4197 159.382 67.3472 159.679 67.3413 159.98V159.98Z" fill="#231F20"/>
<path d="M56.0522 161.057L50.7754 159.074L51.3404 157.592L54.9436 158.946L56.0629 155.951L52.4597 154.576L53.0247 153.083L56.6279 154.437L57.7579 151.409L54.1547 150.066L54.709 148.584L59.9752 150.557L56.0522 161.057Z" fill="#231F20"/>
<path d="M43.7072 142.732L43.5154 146.57L43.6966 146.677L44.5707 147.22L46.3297 144.342L47.8434 145.269L41.9803 154.8L39.603 153.339C37.343 151.943 36.9166 149.907 38.1745 147.871C38.508 147.205 39.0433 146.663 39.7039 146.32C40.3644 145.977 41.1164 145.852 41.8523 145.962L41.9589 141.698L43.7072 142.732ZM43.7072 148.542L42.7585 147.956C42.5089 147.785 42.2245 147.672 41.9258 147.625C41.6272 147.578 41.3219 147.599 41.032 147.684C40.7421 147.77 40.4749 147.919 40.2499 148.121C40.0248 148.323 39.8476 148.572 39.7309 148.851C39.5341 149.082 39.3905 149.354 39.3104 149.647C39.2303 149.94 39.2157 150.247 39.2676 150.546C39.3195 150.845 39.4366 151.129 39.6106 151.378C39.7847 151.627 40.0114 151.834 40.2746 151.985L41.234 152.572L43.7072 148.542Z" fill="#231F20"/>
<path d="M28.8578 145.557L27.5146 144.395L34.8809 135.962L36.2241 137.135L28.8578 145.557Z" fill="#231F20"/>
<path d="M20.6816 137.594L17.0571 133.255L18.2724 132.189L20.7349 135.152L23.1868 133.106L20.7243 130.142L21.9609 129.076L24.4554 132.189L26.9392 130.057L24.5193 127.125L25.7346 126.059L29.3271 130.387L20.6816 137.594Z" fill="#231F20"/>
<path d="M11.5234 125.153L10.7345 123.661L16.0646 116.487L8.91158 120.356L8.14404 118.939L17.9835 113.608L18.7724 115.058L13.6874 122.083L20.5526 118.363L21.3202 119.823L11.5234 125.153Z" fill="#231F20"/>
<path d="M9.83931 108.597C6.22547 109.663 3.80559 108.896 3.01672 106.22C2.33447 103.928 3.30455 102.255 5.8417 101.37L6.39604 103.193C4.86095 103.747 4.18936 104.493 4.56247 105.751C5.04218 107.361 6.69452 107.585 9.31696 106.817C11.9394 106.05 13.208 104.973 12.7283 103.363C12.3551 102.105 11.3957 101.839 9.79667 102.201L9.26366 100.378C11.8754 99.7387 13.6024 100.613 14.2847 102.915C15.0629 105.538 13.4425 107.531 9.83931 108.597Z" fill="#231F20"/>
<path d="M0.511694 93.0658L0 87.4159L1.57772 87.2773L1.92951 91.115L5.1276 90.8165L4.78647 86.9788L6.39618 86.8829L6.74796 90.7206L9.94605 90.4221L9.59426 86.5844L11.172 86.4458L11.6837 92.0531L0.511694 93.0658Z" fill="#231F20"/>
<path d="M14.135 50.5524C13.8342 50.4066 13.5837 50.1746 13.4152 49.8859C13.2467 49.5972 13.1679 49.2649 13.1889 48.9313C13.2098 48.5977 13.3296 48.2779 13.5328 48.0125C13.7361 47.7472 14.0138 47.5483 14.3304 47.4413C14.6471 47.3342 14.9884 47.3238 15.311 47.4113C15.6336 47.4989 15.9228 47.6804 16.1419 47.9329C16.361 48.1853 16.5 48.4972 16.5413 48.8289C16.5826 49.1606 16.5242 49.4971 16.3737 49.7955C16.2772 49.993 16.1425 50.1693 15.9775 50.3144C15.8125 50.4595 15.6203 50.5704 15.4122 50.6408C15.204 50.7112 14.9839 50.7396 14.7647 50.7244C14.5455 50.7093 14.3315 50.6508 14.135 50.5524V50.5524Z" fill="#231F20"/>
<path d="M81.5196 103.758V58.7506L83.2146 58.6333L83.1506 103.897L105.537 81.3184L106.859 82.555L82.2978 106.914L58.0137 82.555L59.2609 81.3184L81.5196 103.758Z" fill="#231F20"/>
</svg>
